<svg width="400" height="400" viewBox="0 0 400 400" fill="none" xmlns="http://www.w3.org/2000/svg">
  <g stroke-width="14" stroke-linecap="round">
    <!-- Đường cong trên cùng -->
    <path d="M200 70 C260 80, 320 140, 300 210" stroke="#00CFFF"/>
    <circle cx="200" cy="70" r="7" fill="#00CFFF"/>
    <circle cx="300" cy="210" r="7" fill="#00CFFF"/>
    <circle cx="260" cy="120" r="7" fill="#00CFFF"/>
    <!-- Đường cong trái -->
    <path d="M200 70 C140 80, 80 140, 100 210" stroke="#FFC300"/>
    <circle cx="200" cy="70" r="7" fill="#FFC300"/>
    <circle cx="100" cy="210" r="7" fill="#FFC300"/>
    <circle cx="140" cy="120" r="7" fill="#FFC300"/>
    <!-- Đường cong dưới -->
    <path d="M100 210 C120 300, 280 300, 300 210" stroke="#FF5733"/>
    <circle cx="100" cy="210" r="7" fill="#FF5733"/>
    <circle cx="300" cy="210" r="7" fill="#FF5733"/>
    <circle cx="200" cy="290" r="7" fill="#FF5733"/>
    <!-- Đường cong tím -->
    <path d="M130 250 Q200 320 270 250" stroke="#C700FF"/>
    <circle cx="130" cy="250" r="7" fill="#C700FF"/>
    <circle cx="270" cy="250" r="7" fill="#C700FF"/>
    <circle cx="200" cy="285" r="7" fill="#C700FF"/>
  </g>
  <!-- Chữ DCE -->
  <text x="200" y="360" text-anchor="middle" font-family="Montserrat, Arial, Helvetica, sans-serif" font-size="48" font-weight="bold" fill="#00FFF7">DCE</text>
</svg>